{
   "accessors" : 
   [
      {
         "bufferView" : 0,
         "byteOffset" : 0,
         "componentType" : 5126,
         "count" : 15526,
         "max" : [ 3.9840207908995817e-17, 6.2279996871948242, 28.948600769042969 ],
         "min" : [ -6.2279996871948242, -6.2279996871948242, 20.778999328613281 ],
         "type" : "VEC3"
      },
      {
         "bufferView" : 1,
         "byteOffset" : 0,
         "componentType" : 5126,
         "count" : 15526,
         "normalized" : false,
         "type" : "VEC2"
      },
      {
         "bufferView" : 2,
         "byteOffset" : 0,
         "componentType" : 5125,
         "count" : 80931,
         "type" : "SCALAR"
      }
   ],
   "asset" : 
   {
      "generator" : "VTK",
      "version" : "2.0"
   },
   "bufferViews" : 
   [
      {
         "buffer" : 0,
         "byteLength" : 186312,
         "byteOffset" : 0
      },
      {
         "buffer" : 1,
         "byteLength" : 124208,
         "byteOffset" : 0
      },
      {
         "buffer" : 2,
         "byteLength" : 323724,
         "byteOffset" : 0
      },
      {
         "buffer" : 3,
         "byteLength" : 273,
         "byteOffset" : 0
      }
   ],
   "buffers" : 
   [
      {
         "byteLength" : 186312,
         "uri" : "buffer2839312.bin"
      },
      {
         "byteLength" : 124208,
         "uri" : "buffer3358098.bin"
      },
      {
         "byteLength" : 323724,
         "uri" : "buffer3458860.bin"
      },
      {
         "byteLength" : 273,
         "uri" : "buffer3459349.bin"
      }
   ],
   "cameras" : 
   [
      {
         "perspective" : 
         {
            "aspectRatio" : 1.9132791327913279,
            "yfov" : 0.52359877559829882,
            "zfar" : 73.572326708407843,
            "znear" : 44.623829149354634
         },
         "type" : "perspective"
      }
   ],
   "images" : 
   [
      {
         "bufferView" : 3,
         "mimeType" : "image/png"
      }
   ],
   "materials" : 
   [
      {
         "pbrMetallicRoughness" : 
         {
            "baseColorFactor" : [ 1.0, 1.0, 1.0, 1.0 ],
            "baseColorTexture" : 
            {
               "index" : 0,
               "texCoord" : 0
            },
            "metallicFactor" : 0.0,
            "roughnessFactor" : 1.0
         }
      }
   ],
   "meshes" : 
   [
      {
         "name" : "mesh0",
         "primitives" : 
         [
            {
               "attributes" : 
               {
                  "POSITION" : 0,
                  "TEXCOORD_0" : 1
               },
               "indices" : 2,
               "material" : 0,
               "mode" : 4
            }
         ]
      }
   ],
   "nodes" : 
   [
      {
         "mesh" : 0,
         "name" : "mesh0"
      },
      {
         "camera" : 0,
         "matrix" : 
         [
            0.61040138254878229,
            -0.069584482456982039,
            0.78902988028573995,
            0.0,
            0.3738423300851797,
            0.90351550482108189,
            -0.20952719342459852,
            0.0,
            -0.69832088929017355,
            0.42286845750079249,
            0.57752073835653883,
            0.0,
            17.362910961230714,
            -10.514116774256081,
            -69.280787430323599,
            1.0
         ],
         "name" : "Camera Node"
      },
      {
         "children" : [ 0, 1 ],
         "name" : "Renderer Node"
      }
   ],
   "samplers" : 
   [
      {
         "magFilter" : 9728,
         "minFilter" : 9728,
         "wrapS" : 33071,
         "wrapT" : 33071
      }
   ],
   "scene" : 0,
   "scenes" : 
   [
      {
         "name" : "Layer 0",
         "nodes" : [ 2 ]
      }
   ],
   "textures" : 
   [
      {
         "sampler" : 0,
         "source" : 0
      }
   ]
}