{
   "accessors" : 
   [
      {
         "bufferView" : 0,
         "byteOffset" : 0,
         "componentType" : 5126,
         "count" : 19687,
         "max" : [ 6.2279996871948242, 6.2279996871948242, 28.948600769042969 ],
         "min" : [ -6.2279996871948242, -6.2279996871948242, 20.778999328613281 ],
         "type" : "VEC3"
      },
      {
         "bufferView" : 1,
         "byteOffset" : 0,
         "componentType" : 5126,
         "count" : 19687,
         "normalized" : false,
         "type" : "VEC2"
      },
      {
         "bufferView" : 2,
         "byteOffset" : 0,
         "componentType" : 5125,
         "count" : 118110,
         "type" : "SCALAR"
      }
   ],
   "asset" : 
   {
      "generator" : "VTK",
      "version" : "2.0"
   },
   "bufferViews" : 
   [
      {
         "buffer" : 0,
         "byteLength" : 236244,
         "byteOffset" : 0
      },
      {
         "buffer" : 1,
         "byteLength" : 157496,
         "byteOffset" : 0
      },
      {
         "buffer" : 2,
         "byteLength" : 472440,
         "byteOffset" : 0
      },
      {
         "buffer" : 3,
         "byteLength" : 273,
         "byteOffset" : 0
      }
   ],
   "buffers" : 
   [
      {
         "byteLength" : 236244,
         "uri" : "buffer965930.bin"
      },
      {
         "byteLength" : 157496,
         "uri" : "buffer5588243.bin"
      },
      {
         "byteLength" : 472440,
         "uri" : "buffer5827468.bin"
      },
      {
         "byteLength" : 273,
         "uri" : "buffer5827957.bin"
      }
   ],
   "cameras" : 
   [
      {
         "perspective" : 
         {
            "aspectRatio" : 1.9132791327913279,
            "yfov" : 0.52359877559829882,
            "zfar" : 66.01157844259366,
            "znear" : 29.094260631665136
         },
         "type" : "perspective"
      }
   ],
   "images" : 
   [
      {
         "bufferView" : 3,
         "mimeType" : "image/png"
      }
   ],
   "materials" : 
   [
      {
         "pbrMetallicRoughness" : 
         {
            "baseColorFactor" : [ 1.0, 1.0, 1.0, 1.0 ],
            "baseColorTexture" : 
            {
               "index" : 0,
               "texCoord" : 0
            },
            "metallicFactor" : 0.0,
            "roughnessFactor" : 1.0
         }
      }
   ],
   "meshes" : 
   [
      {
         "name" : "mesh0",
         "primitives" : 
         [
            {
               "attributes" : 
               {
                  "POSITION" : 0,
                  "TEXCOORD_0" : 1
               },
               "indices" : 2,
               "material" : 0,
               "mode" : 4
            }
         ]
      }
   ],
   "nodes" : 
   [
      {
         "mesh" : 0,
         "name" : "mesh0"
      },
      {
         "camera" : 0,
         "matrix" : 
         [
            0.038200293387559391,
            -0.77257308632256527,
            0.63377564159182587,
            0.0,
            0.97485497077191041,
            0.16815594105064893,
            0.14622368293360871,
            0.0,
            -0.21954162144432257,
            0.61225354697167489,
            0.7595703197691448,
            0.0,
            5.4586389779871434,
            -15.222949771089535,
            -64.275413865974457,
            1.0
         ],
         "name" : "Camera Node"
      },
      {
         "children" : [ 0, 1 ],
         "name" : "Renderer Node"
      }
   ],
   "samplers" : 
   [
      {
         "magFilter" : 9728,
         "minFilter" : 9728,
         "wrapS" : 33071,
         "wrapT" : 33071
      }
   ],
   "scene" : 0,
   "scenes" : 
   [
      {
         "name" : "Layer 0",
         "nodes" : [ 2 ]
      }
   ],
   "textures" : 
   [
      {
         "sampler" : 0,
         "source" : 0
      }
   ]
}